<svg id="Слой_1" data-name="Слой 1" xmlns="http://www.w3.org/2000/svg" xmlns:xlink="http://www.w3.org/1999/xlink" viewBox="0 0 198.11 166.77"><defs><style>.cls-1{fill:#f2f2f2;}.cls-2{fill:url(#Безымянный_градиент_15);}.cls-3{fill:#1a1b20;}.cls-4{fill:#ffb300;}.cls-5{fill:#f29900;}.cls-6{fill:url(#Безымянный_градиент_15-2);}.cls-7{fill:url(#Безымянный_градиент_15-3);}.cls-8{fill:url(#Безымянный_градиент_15-4);}.cls-9{fill:url(#Безымянный_градиент_15-5);}.cls-10{fill:url(#Безымянный_градиент_15-6);}</style><linearGradient id="Безымянный_градиент_15" x1="243.31" y1="339.78" x2="243.31" y2="191.43" gradientUnits="userSpaceOnUse"><stop offset="0.5" stop-color="#e6e6e6"/><stop offset="0.5" stop-color="#fff"/></linearGradient><linearGradient id="Безымянный_градиент_15-2" x1="164.6" y1="238.65" x2="164.6" y2="196.43" xlink:href="#Безымянный_градиент_15"/><linearGradient id="Безымянный_градиент_15-3" x1="192.17" y1="237.41" x2="192.17" y2="197.27" xlink:href="#Безымянный_градиент_15"/><linearGradient id="Безымянный_градиент_15-4" x1="229.13" y1="238.23" x2="229.13" y2="196.57" xlink:href="#Безымянный_градиент_15"/><linearGradient id="Безымянный_градиент_15-5" x1="270.26" y1="237.35" x2="270.26" y2="197.44" xlink:href="#Безымянный_градиент_15"/><linearGradient id="Безымянный_градиент_15-6" x1="311.28" y1="237.75" x2="311.28" y2="197.33" xlink:href="#Безымянный_градиент_15"/></defs><title>Безымянный-1</title><path class="cls-1" d="M218.51,297H181l17.9-23H168l19.73-25.35H154.33v-1.31c-3.17-1.8-5-5.12-6.51-7.75-2.66-4.73-3.51-7.09-3.51-9.74a10.29,10.29,0,0,1,5.06-8.9l-.14-.22a21.4,21.4,0,0,1-3.63-12,20.25,20.25,0,0,1,9-16.71,31.31,31.31,0,0,1,13.9-5.43l.31,0,.3,0c.58-.05,1-.06,1.35-.06a10.45,10.45,0,0,1,5.46,1.53,10.55,10.55,0,0,1,3.2-.49c.11,0,.51,0,1.2.06l.48.05a102.47,102.47,0,0,0,12.23.51c.8,0,3-.07,8.58-.51,4.07-.31,4.07-.31,4.47-.31a10.67,10.67,0,0,1,7.06,2.4,9.77,9.77,0,0,1,.9.84,29.34,29.34,0,0,1,15.14-3.94A29,29,0,0,1,246,191.66a11.33,11.33,0,0,1,6.5-3.6c.88-.16,1.71-.32,10.22-.5,3.62-.08,6.41-.12,8.54-.12a29.22,29.22,0,0,1,12.77,2.68,11.35,11.35,0,0,1,7.4-2.51c.93,0,2.39,0,4.33-.09,2.2-.07,3.82-.11,5-.11,2.47,0,7.05.9,9.9,6.89l.68,1.49.67-1.44a11,11,0,0,1,10.13-6.91c.72,0,1.7,0,3,.1.87,0,1.53.07,2,.07.11,0,.46,0,1.18-.09,1.35-.13,2.32-.19,3.14-.19A10.64,10.64,0,0,1,342.28,198c0,2.32-.08,5.69-.24,10.3-.16,4.28-.24,7.5-.24,9.58,0,1.92.08,4.88.25,8.81.17,4.21.26,7.44.26,9.61a11.45,11.45,0,0,1-.12,1.65l.23,10.69H298.35L288,262h32.25L201.65,353.2Z" transform="translate(-144.31 -186.43)"/><path class="cls-2" d="M337.31,243.65l-.13-6.06a6.69,6.69,0,0,0,.13-1.28c0-2.11-.09-5.27-.26-9.4s-.25-7-.25-9c0-2.15.08-5.43.24-9.76.16-4.55.24-7.86.24-10.12a5.63,5.63,0,0,0-5.84-5.68c-.65,0-1.49,0-2.65.16s-1.56.12-1.67.12c-.51,0-1.25,0-2.24-.08-1.2-.06-2.09-.09-2.72-.09-1.15,0-4,.4-5.6,4-2.05,4.39-3.8,8.11-5.27,11.22l-5.12-11.24c-1.28-2.68-3.09-4-5.39-4-1.11,0-2.68,0-4.82.1s-3.51.1-4.49.1a6.2,6.2,0,0,0-4.7,1.82,5.31,5.31,0,0,0-1.31,2.46c-.25-.2-.49-.42-.76-.61-3.56-2.55-8.07-3.84-13.4-3.84-2.11,0-4.86,0-8.43.12-8.1.17-8.86.31-9.42.42a5.62,5.62,0,0,0-5,5.93l0,.43c0,.5.08,1,.11,1.57-.45-.56-.91-1.12-1.42-1.66a25.17,25.17,0,0,0-35.42-.77c0-.21,0-.41,0-.59v-.29a5.56,5.56,0,0,0-1.9-4.1,5.76,5.76,0,0,0-3.86-1.23c-.21,0-.21,0-4.08.3-5.47.43-7.9.52-9,.52a111.16,111.16,0,0,1-12.87-.55l-.25,0-.79,0a5,5,0,0,0-3.88,1.71,5.59,5.59,0,0,0-4.78-2.75c-.21,0-.52,0-.91,0l-.16,0-.15,0a26.38,26.38,0,0,0-11.73,4.55c-4.49,3.21-6.86,7.58-6.86,12.64a16.44,16.44,0,0,0,2.79,9.25,58,58,0,0,0,4,4.73,6.89,6.89,0,0,1,.55.73,29.39,29.39,0,0,1-4.24,1.16,5.39,5.39,0,0,0-4.35,5.28c0,1.45.44,3,2.87,7.29,1.86,3.32,3.63,6.45,7.15,6.51H198L178.25,269h30.9l-17.9,23h34l-14.34,47.78L305.51,267H277.74l18.17-23.35Z" transform="translate(-144.31 -186.43)"/><path class="cls-3" d="M337.05,226.91c-.16-4-.25-7-.25-9,0-2.15.08-5.43.24-9.76.16-4.55.24-7.86.24-10.12a5.63,5.63,0,0,0-5.84-5.68c-.65,0-1.49,0-2.65.16s-1.56.12-1.67.12c-.51,0-1.25,0-2.24-.08-1.2-.06-2.09-.09-2.72-.09-1.15,0-4,.4-5.6,4-2.05,4.39-3.8,8.11-5.27,11.22l-5.12-11.24c-1.28-2.68-3.09-4-5.39-4-1.11,0-2.68,0-4.82.1s-3.51.1-4.49.1a6.2,6.2,0,0,0-4.7,1.82,5.31,5.31,0,0,0-1.31,2.46c-.25-.2-.49-.42-.76-.61-3.56-2.55-8.07-3.84-13.4-3.84-2.11,0-4.86,0-8.43.12-8.1.17-8.86.31-9.42.42a5.62,5.62,0,0,0-5,5.93l0,.43c0,.5.08,1,.11,1.57-.45-.56-.91-1.12-1.42-1.66a25.17,25.17,0,0,0-35.42-.77c0-.21,0-.41,0-.59v-.29a5.56,5.56,0,0,0-1.9-4.1,5.76,5.76,0,0,0-3.86-1.23c-.21,0-.21,0-4.08.3-5.47.43-7.9.52-9,.52a111.16,111.16,0,0,1-12.87-.55l-.25,0-.79,0a5,5,0,0,0-3.88,1.71,5.59,5.59,0,0,0-4.78-2.75c-.21,0-.52,0-.91,0l-.16,0-.15,0a26.38,26.38,0,0,0-11.73,4.55c-4.49,3.21-6.86,7.58-6.86,12.64a16.44,16.44,0,0,0,2.79,9.25,58,58,0,0,0,4,4.73,6.89,6.89,0,0,1,.55.73,29.39,29.39,0,0,1-4.24,1.16,5.39,5.39,0,0,0-4.35,5.28c0,1.45.44,3,2.87,7.29,1.88,3.35,3.66,6.51,7.23,6.51a8.53,8.53,0,0,0,1-.07l.17,0a25.74,25.74,0,0,0,12.73-5.72,17.54,17.54,0,0,0,6.59-13.63,16.28,16.28,0,0,0-2.81-8.89l-.09-.15-.11-.15-3.78-4.77.54.05a5.49,5.49,0,0,0,4.09,1.79c1.21,0,2.59-.05,4.15-.15.05,2.1.08,3.57.08,4.4,0,2.13-.1,5.42-.28,9.77-.19,4.56-.29,7.9-.29,10.2a5.83,5.83,0,0,0,4.91,5.79l.13,0a42.55,42.55,0,0,0,5.86.28,45.49,45.49,0,0,0,5.56-.26,6.61,6.61,0,0,0,2.79-.83,5.67,5.67,0,0,0,2.66-5c0-2.29-.09-5.63-.28-10.21-.17-4.37-.26-7.67-.26-9.81,0-1.06,0-2.63.06-4.68l1.76.08a28.54,28.54,0,0,0-.57,5.7,25.47,25.47,0,0,0,7,18.13,25.32,25.32,0,0,0,36.24.05c.43-.45.81-.93,1.2-1.4,0,.77,0,1.48,0,2.09a5.83,5.83,0,0,0,4.81,5.77,30.34,30.34,0,0,0,5.86.27c2.48,0,4.29,0,5.54-.12l1.43-.1.6-.21a5.35,5.35,0,0,0,3.52-4l.18.48.08.16a6,6,0,0,0,2.55,2.86,7,7,0,0,0,2.45.69,46,46,0,0,0,5.65.21,44.22,44.22,0,0,0,6.13-.22,6.55,6.55,0,0,0,1.42-.39,6.47,6.47,0,0,0,2.4.44h9.42a5.66,5.66,0,0,0,4.69-2.37c.75,1.24,2.43,2.94,6,2.94a9.85,9.85,0,0,0,2.1-.13l.17,0,.16,0a6,6,0,0,0,3.39-2.48,5.69,5.69,0,0,0,4.51,2.11h10a5.71,5.71,0,0,0,5.82-5.87C337.31,234.2,337.22,231,337.05,226.91Zm-104.91-5.74a3.69,3.69,0,0,1-3,1.48,3.77,3.77,0,0,1-3.14-1.31,5.44,5.44,0,0,1-1.28-3.9,5.65,5.65,0,0,1,1.48-3.88,3.55,3.55,0,0,1,2.94-1.47,3.69,3.69,0,0,1,3.08,1.37,5.65,5.65,0,0,1,1.35,3.92A5.5,5.5,0,0,1,232.14,221.17Zm37.34-9.67v-.56a5.51,5.51,0,0,1,.71.13c0,.09,0,.21,0,.35C270,211.45,269.79,211.48,269.48,211.5Z" transform="translate(-144.31 -186.43)"/><polygon class="cls-3" points="164.06 41.22 133.16 41.22 151.06 18.21 105.67 18.21 85.39 18.21 84.03 18.21 33.94 82.57 64.84 82.57 46.94 105.57 80.92 105.57 66.59 153.35 161.2 80.57 133.43 80.57 164.06 41.22"/><polygon class="cls-4" points="153.84 46.22 122.94 46.22 140.84 23.21 86.48 23.21 44.17 77.57 75.07 77.57 57.17 100.57 87.64 100.57 75.83 139.93 146.5 85.57 123.2 85.57 153.84 46.22"/><polygon class="cls-5" points="93.48 124.89 103.89 92.2 77.86 91.47 91.32 69.2 65.75 69.2 96.33 23.21 87.83 23.21 46.17 76.57 77.07 76.57 59.17 99.57 89.64 99.57 77.83 136.93 93.48 124.89"/><polygon class="cls-3" points="193 57.22 15.02 57.22 15.02 15.86 192.37 27.55 193 57.22"/><path class="cls-6" d="M169.14,213.29q-2-2.5-2-4.23a3.32,3.32,0,0,1,1.83-3,6.7,6.7,0,0,1,3.56-.93,5.39,5.39,0,0,1,.82.09,6.5,6.5,0,0,0,.76.08c.34,0,.5-.16.5-.48a.6.6,0,0,0-.08-.28,80.72,80.72,0,0,1-3.41-7.45c-.17-.45-.4-.67-.68-.67l-.48,0a21.46,21.46,0,0,0-9.56,3.67c-3.18,2.28-4.77,5.13-4.77,8.58a11.43,11.43,0,0,0,2,6.48q.28.42,3.61,4.26a6.66,6.66,0,0,1,1.92,4.09,4.67,4.67,0,0,1-2.94,4.35,30.21,30.21,0,0,1-5.41,1.57c-.28.06-.42.19-.42.4q0,.87,2.22,4.84t2.88,4l.37,0a20.59,20.59,0,0,0,10.29-4.6,12.43,12.43,0,0,0,4.83-9.81,11.31,11.31,0,0,0-2-6.18Q172.73,217.81,169.14,213.29Z" transform="translate(-144.31 -186.43)"/><path class="cls-7" d="M206.68,202.12c0-.41,0-1.11.06-2.11s.06-1.61.06-2.12c0-.32-.06-.5-.12-.55a1.65,1.65,0,0,0-.65-.07l-3.69.28q-6.83.54-9.37.54a115.07,115.07,0,0,1-13.51-.59l-.39,0c-.32,0-.55.7-.68,2.12-.07.88-.14,1.76-.19,2.65,0,.28-.21,1.08-.51,2.39a15.76,15.76,0,0,0-.4,2.18c0,.18.15.28.45.28q3.36,0,9-.57.22,7.62.23,9.82,0,3.33-.29,10c-.18,4.44-.28,7.77-.28,10a.83.83,0,0,0,.79.87,38.79,38.79,0,0,0,5.11.23,40.42,40.42,0,0,0,5-.23,2.89,2.89,0,0,0,.79-.14c.17-.09.26-.32.26-.68q0-3.31-.27-10t-.27-10q0-2.82.17-10c4.94.28,7.77.43,8.49.43.41,0,.62-.19.62-.57a17.17,17.17,0,0,0-.18-2A16,16,0,0,1,206.68,202.12Z" transform="translate(-144.31 -186.43)"/><path class="cls-8" d="M229.13,196.57a19,19,0,0,0-14.47,6.12,22,22,0,0,0,0,29.44,20.32,20.32,0,0,0,29,.06,22.12,22.12,0,0,0,0-29.5A19.06,19.06,0,0,0,229.13,196.57Zm6.77,27.89a8.66,8.66,0,0,1-6.77,3.19,8.77,8.77,0,0,1-6.91-3,11.19,11.19,0,0,1,.17-14.33,8.91,8.91,0,0,1,13.6-.11,10.59,10.59,0,0,1,2.56,7.19A10.44,10.44,0,0,1,235.9,224.46Z" transform="translate(-144.31 -186.43)"/><path class="cls-9" d="M280.19,222c0-.26.21-.55.64-.85a13.39,13.39,0,0,0,4.38-4.76,15.29,15.29,0,0,0,1.18-6.57,10.87,10.87,0,0,0-4.6-9.45q-4.05-2.91-10.49-2.91-3.1,0-8.32.11c-5.13.12-8,.23-8.62.34s-.9.33-.89.65l0,.4q.54,6.67.54,18.61,0,3.13-.3,9.39t-.29,9.37q0,.7.81.87a36.14,36.14,0,0,0,4.86.17c2.35,0,4.08,0,5.19-.11l.79-.06c.16-.05.25-.24.25-.56q0-1.92-.35-5.73c-.24-2.54-.36-4.44-.36-5.72,0-1,.15-1.44.43-1.44,2,0,3,0,3,0a2.4,2.4,0,0,1,2.2,1.2c1.56,3.66,2.71,6.44,3.45,8.32.54,1.44.95,2.53,1.24,3.27a1.21,1.21,0,0,0,.39.56,2.54,2.54,0,0,0,.71.14,45.73,45.73,0,0,0,5,.17,46.74,46.74,0,0,0,5.38-.17c.38-.05.57-.15.57-.28q0-.74-3.44-7.84C281.33,224.32,280.19,222,280.19,222ZM269,216.51a24.63,24.63,0,0,1-3.61-.26c-.6-.09-.9-.18-.9-.28q0-.61,0-1.89t0-1.92a49.49,49.49,0,0,1,.17-5.52c.12-.55,1.07-.82,2.85-.82a11.44,11.44,0,0,1,5.48,1q2.25,1.33,2.25,4.77Q275.22,216.51,269,216.51Z" transform="translate(-144.31 -186.43)"/><path class="cls-10" d="M332.06,227.11q-.26-6.15-.26-9.22,0-3.33.24-9.94c.16-4.41.24-7.73.24-9.94,0-.46-.28-.68-.84-.68s-1.19,0-2.16.14-1.69.14-2.16.14-1.4,0-2.5-.08-1.92-.09-2.46-.09c-.38,0-.73.37-1.05,1.1q-5.58,11.94-8.43,17.86c-.68,1.41-1.12,2.11-1.33,2.11-.39,0-.88-.61-1.46-1.83l-8.24-18.08c-.38-.79-.67-1.19-.87-1.19-1,0-2.59,0-4.66.1s-3.62.1-4.65.1c-.81,0-1.21.19-1.19.56l0,.48q.22,4.64.26,7,.27,9,.28,12.27,0,3.08-.3,9.24c-.2,4.11-.29,7.19-.29,9.23a1.22,1.22,0,0,0,.12.64q.14.18.69.18h9.42c.53,0,.79-.33.79-1,0-1.85,0-4.61-.14-8.3s-.14-6.45-.14-8.29a1.37,1.37,0,0,1,.2-.82,1,1,0,0,1,.25.31q1.33,2.79,4,9.06,2.47,5.93,4,9c.19.38.78.57,1.75.57a10.41,10.41,0,0,0,1.13,0A1.22,1.22,0,0,0,313,237l4.06-10q3.46-8.53,3.78-8.71c.17,0,.25.33.25.87q0,2.85-.21,8.55t-.21,8.55c0,.65.27,1,.82,1h10c.55,0,.82-.29.82-.87C332.31,234.28,332.22,231.21,332.06,227.11Z" transform="translate(-144.31 -186.43)"/></svg>